<svg width="81" height="69" viewBox="0 0 81 69" fill="none" xmlns="http://www.w3.org/2000/svg">
<path d="M42.1116 22.6487C45.6665 22.6487 48.5642 19.4822 48.5642 15.6286C48.5642 11.8048 45.6815 8.80258 42.1116 8.80258C38.5717 8.80258 35.6591 11.8646 35.6591 15.6584C35.674 19.4971 38.5567 22.6487 42.1116 22.6487ZM42.1116 20.3933C39.9309 20.3933 38.0638 18.3022 38.0638 15.6584C38.0638 13.0595 39.901 11.058 42.1116 11.058C44.3372 11.058 46.1594 13.0296 46.1594 15.6286C46.1594 18.2723 44.3073 20.3933 42.1116 20.3933ZM32.7166 36.465H51.4918C53.9712 36.465 55.1512 35.7182 55.1512 34.0752C55.1512 30.1618 50.2072 24.5009 42.1116 24.5009C34.0011 24.5009 29.0571 30.1618 29.0571 34.0752C29.0571 35.7182 30.2371 36.465 32.7166 36.465ZM32.0146 34.2096C31.6262 34.2096 31.4619 34.105 31.4619 33.7914C31.4619 31.3418 35.2558 26.7563 42.1116 26.7563C48.9526 26.7563 52.7464 31.3418 52.7464 33.7914C52.7464 34.105 52.5971 34.2096 52.2087 34.2096H32.0146Z" fill="#5B9CFE"/>
<path d="M0.749072 57.9495H13.0339V58.9982H0.749072V57.9495ZM1.82774 48.5411H11.8803V49.5599H1.82774V48.5411ZM1.8577 54.2491H11.8503V55.2678H1.8577V54.2491ZM3.92514 49.47H5.1686V54.3689H3.92514V49.47ZM8.53942 49.47H9.7679V54.3689H8.53942V49.47ZM16.029 58.0244H28.3138V59.0581H16.029V58.0244ZM21.5272 55.133H22.7556V58.4588H21.5272V55.133ZM17.5271 48.1816H26.7857V52.2865H18.7856V54.9981H17.5571V51.2977H25.5572V49.2003H17.5271V48.1816ZM17.5571 54.4738H27.1003V55.4925H17.5571V54.4738ZM41.1817 47.1778H42.4251V54.2041H41.1817V47.1778ZM33.601 54.8633H42.4251V58.1143H34.8595V60.1518H33.631V57.2004H41.1966V55.8521H33.601V54.8633ZM33.631 59.5825H42.9195V60.5862H33.631V59.5825ZM31.9081 48.1067H39.1891V49.0805H31.9081V48.1067ZM31.6834 53.7397L31.5336 52.721C32.3426 52.711 33.2215 52.696 34.1703 52.676C35.1192 52.656 36.078 52.6211 37.0468 52.5711C38.0256 52.5112 38.9544 52.4313 39.8333 52.3314L39.8932 53.2303C39.0043 53.3701 38.0755 53.475 37.1067 53.5449C36.1379 53.6148 35.1891 53.6648 34.2602 53.6947C33.3414 53.7247 32.4824 53.7397 31.6834 53.7397ZM33.2415 48.5561H34.44V53.1554H33.2415V48.5561ZM36.6423 48.5561H37.8558V53.1554H36.6423V48.5561ZM59.2519 49.6348H62.7275V50.6535H59.2519V49.6348ZM62.2032 47.1778H63.4467V54.1742H62.2032V47.1778ZM54.7275 54.8633H63.4467V58.1143H55.9709V60.1667H54.7574V57.1704H62.2182V55.8521H54.7275V54.8633ZM54.7574 59.5525H63.941V60.5562H54.7574V59.5525ZM55.6863 47.6123H56.69V48.8707C56.69 49.6997 56.5352 50.4737 56.2256 51.1928C55.916 51.902 55.4815 52.5162 54.9222 53.0356C54.3629 53.5449 53.7037 53.9345 52.9447 54.2041L52.2855 53.2153C52.9646 52.9856 53.5589 52.656 54.0683 52.2266C54.5776 51.7971 54.9722 51.2977 55.2518 50.7284C55.5414 50.1491 55.6863 49.5299 55.6863 48.8707V47.6123ZM55.881 47.6123H56.8998V48.8707C56.8998 49.3102 56.9797 49.7396 57.1395 50.1591C57.2993 50.5686 57.524 50.9531 57.8136 51.3127C58.1133 51.6723 58.4678 51.9919 58.8773 52.2715C59.2868 52.5412 59.7363 52.7559 60.2256 52.9157L59.5665 53.8895C58.8374 53.6298 58.1932 53.2553 57.6339 52.7659C57.0845 52.2665 56.6551 51.6872 56.3455 51.028C56.0358 50.3589 55.881 49.6398 55.881 48.8707V47.6123ZM74.8164 50.6985H77.8576V51.7322H74.8164V50.6985ZM77.4831 47.1778H78.7266V55.2528H77.4831V47.1778ZM74.2621 55.6723C75.2009 55.6723 76.0049 55.7722 76.6741 55.9719C77.3533 56.1717 77.8726 56.4613 78.2322 56.8409C78.5917 57.2104 78.7715 57.6648 78.7715 58.2042C78.7715 59.0032 78.367 59.6224 77.558 60.0619C76.759 60.5013 75.6604 60.721 74.2621 60.721C72.8638 60.721 71.7602 60.5013 70.9512 60.0619C70.1522 59.6224 69.7527 59.0032 69.7527 58.2042C69.7527 57.6648 69.9325 57.2104 70.292 56.8409C70.6615 56.4613 71.1809 56.1717 71.8501 55.9719C72.5292 55.7722 73.3332 55.6723 74.2621 55.6723ZM74.2621 56.6461C73.5829 56.6461 72.9987 56.706 72.5093 56.8259C72.0199 56.9457 71.6403 57.1205 71.3707 57.3502C71.111 57.5799 70.9812 57.8646 70.9812 58.2042C70.9812 58.5238 71.111 58.7984 71.3707 59.0281C71.6403 59.2579 72.0199 59.4376 72.5093 59.5675C72.9987 59.6873 73.5829 59.7473 74.2621 59.7473C74.9512 59.7473 75.5355 59.6873 76.0149 59.5675C76.5043 59.4376 76.8788 59.2579 77.1385 59.0281C77.4082 58.7984 77.543 58.5238 77.543 58.2042C77.543 57.8646 77.4082 57.5799 77.1385 57.3502C76.8788 57.1205 76.5043 56.9457 76.0149 56.8259C75.5355 56.706 74.9512 56.6461 74.2621 56.6461ZM71.0261 48.5561H72.0448V49.6498C72.0448 50.4787 71.885 51.2578 71.5654 51.9869C71.2558 52.706 70.8164 53.3402 70.2471 53.8895C69.6778 54.4288 69.0186 54.8433 68.2695 55.133L67.6253 54.1442C68.1347 53.9644 68.5941 53.7197 69.0036 53.4101C69.4231 53.1005 69.7826 52.7459 70.0823 52.3464C70.3919 51.9469 70.6266 51.5174 70.7864 51.058C70.9462 50.5986 71.0261 50.1292 71.0261 49.6498V48.5561ZM71.2658 48.5561H72.2845V49.6348C72.2845 50.2141 72.4194 50.7784 72.689 51.3277C72.9587 51.877 73.3432 52.3614 73.8426 52.7809C74.342 53.2004 74.9163 53.53 75.5655 53.7697L74.9363 54.7584C74.1972 54.4888 73.553 54.0992 73.0036 53.5899C72.4543 53.0705 72.0249 52.4713 71.7152 51.7921C71.4156 51.1129 71.2658 50.3938 71.2658 49.6348V48.5561ZM68.0148 48.1666H75.2509V49.1853H68.0148V48.1666Z" fill="black"/>
</svg>
